PathFileType	4	(X/Y/Z)	C:\Users\WrightLab\Desktop\Jo\P1_boxCal4.trc
DataRate	CameraRate	NumFrames	NumMarkers	Units	OrigDataRate	OrigDataStartFrame	OrigNumFrames
100.00	100.00	      10	19	mm	100.00	452	      1205
Frame#	Time	Headset_Front			Headset_Back			Headset_Left			Headset_Right			Left_Shoulder			Right_Shoulder			Sternum			C7			Left Elbow			Right Elbow			Left Wrist			Right Wrist			Left ASIS			Right ASIS			S2			Left Knee			Right Knee			Left Ankle			Right Ankle			
		X1	Y1	Z1	X2	Y2	Z2	X3	Y3	Z3	X4	Y4	Z4	X5	Y5	Z5	X6	Y6	Z6	X7	Y7	Z7	X8	Y8	Z8	X9	Y9	Z9	X10	Y10	Z10	X11	Y11	Z11	X12	Y12	Z12	X13	Y13	Z13	X14	Y14	Z14	X15	Y15	Z15	X16	Y16	Z16	X17	Y17	Z17	X18	Y18	Z18	X19	Y19	Z19	

452	4.510							-5.81766	1277.82922	874.82172	-467.25000	1013.24237	955.71082	140.98381	788.73767	783.14209							38.36541	966.85193	780.72815							-35.59345	481.15152	1070.03540	-185.05891	883.34924	742.06384	-364.38214	447.15674	859.22028				-359.21820	158.97264	641.80713	-317.66394	898.14923	1047.67944	-26.73590	121.76605	1137.70398	-377.81314	1279.83655	914.52850				
453	4.520							-3.08080	1278.73120	886.03448	-465.42688	1014.32495	964.37585	143.48711	789.98663	795.86719							41.37230	967.17285	792.98383							-32.33235	482.69080	1082.32446	-181.96519	883.42694	755.63080	-363.34531	446.88348	874.32941				-359.69952	165.10876	649.94214	-315.28241	899.53003	1059.35889	-23.66590	118.93364	1143.95605	-374.88339	1281.32336	925.16528				
454	4.530							0.30358	1279.78638	898.68585	-463.42148	1015.23895	971.88702	146.95695	790.71619	809.62970							45.00165	967.90363	807.07782							-28.26622	485.00522	1092.85059	-178.76479	885.42139	768.53949	-363.80139	447.58548	890.51202				-359.75479	170.91391	661.19946	-311.77429	902.17285	1070.67029	-22.69522	116.08395	1146.46716	-372.53592	1282.98706	936.57330				
455	4.540							1.51404	1281.11230	910.49701	-461.95163	1016.51343	979.78870	149.96613	792.04767	823.59491							47.01049	969.58997	818.72437							-25.48092	486.93988	1104.19702	-175.45529	886.66852	781.33411	-364.41620	448.17184	907.65088				-359.68503	177.33994	672.90070	-308.50128	906.00690	1088.31384	-21.46851	113.97190	1150.19666	-369.84680	1284.71985	947.18213				
456	4.550							4.37449	1282.46460	922.71655	-460.32718	1017.81659	986.75897	152.15956	792.88336	837.69244							50.39141	970.90875	832.99097							-22.32186	490.13016	1115.02844	-172.52728	889.13977	792.01154	-365.31613	448.12982	926.49060				-359.01508	184.20433	685.29517	-306.32959	907.23871	1097.96033	-21.90628	112.13176	1151.28394	-367.31427	1286.43066	958.23334				
457	4.560							7.08951	1283.87842	935.34058	-458.62497	1019.18329	994.69122	154.67651	794.31927	851.85742							51.95575	971.91241	846.90839							-18.93713	492.34677	1125.08960	-169.61729	891.01459	803.94037	-365.88022	448.78720	945.01154				-357.50882	189.86536	699.34296	-303.47964	908.50311	1107.59644	-22.26674	112.59196	1152.22827	-365.05682	1288.39270	968.86633				
458	4.570							8.55345	1285.92102	947.86145	-457.43375	1020.61334	1001.47540	157.25565	795.87653	867.34967							55.32101	973.24359	859.77649							-17.42055	493.33313	1132.93066	-167.35188	894.00714	814.31366	-366.02481	448.01135	965.50903				-356.48346	196.58812	714.13507	-300.74420	909.93835	1117.98914	-21.56533	112.22416	1153.67444	-363.04880	1289.99817	979.49768				
459	4.580							10.84500	1287.71289	960.21997	-455.10675	1021.66431	1009.46130	159.54958	796.90845	882.22144							58.02813	974.54114	874.42993							-14.15632	495.29703	1142.67175	-165.09630	895.33380	824.72546	-367.78333	449.11121	985.68475				-355.52884	203.80809	730.11530	-298.52765	911.85504	1128.42847	-21.49142	112.29506	1154.17273	-361.19971	1291.53711	989.49438				
460	4.590							12.38742	1288.84546	972.54303	-454.45129	1022.99640	1016.77472	162.12297	798.21973	897.86157							60.36673	976.30029	887.95001							-12.24215	495.13434	1151.28467	-163.21294	897.05042	836.25055	-369.76535	449.52975	1006.02649				-353.65381	210.84503	747.18994	-295.88940	912.85028	1138.58875	-21.21899	112.16938	1155.21216	-360.00717	1292.88611	999.71759				
461	4.600							13.70297	1290.85510	985.83722	-452.58337	1023.78198	1025.33533	163.97098	799.56042	913.13873							63.35080	977.78156	901.55963							-9.13665	494.60294	1158.06213	-160.80484	898.40692	847.27307	-373.85565	452.10599	1026.27954				-351.40393	217.51584	764.49762	-294.07736	914.02234	1148.49792	-21.89948	111.85267	1155.30017	-358.58603	1294.30957	1009.45038				
